# xmcd CD database file
#
# Track frame offsets:
#	182
#	23107
#	45045
#	61950
#	80367
#	92282
#	121342
#	140207
#	157862
#	174765
#	184650
#	201535
#
# Disc length: 3009 seconds
#
# Revision: 2
# Processed by: cddbd v1.5PL3 Copyright (c) Steve Scherf et al.
# Submitted via: CDex 1.50Beta7
#
DISCID=8d0bbf0c
DTITLE=Chris Rea - Tennis
DYEAR=1980
DGENRE=Rock
TTITLE0=Tennis
TTITLE1=Sweet Kiss
TTITLE2=Since I Don't See You Anymore
TTITLE3=Dancing Girls
TTITLE4=No Work Today
TTITLE5=Every Time I See You Smile
TTITLE6=For Ever And Ever
TTITLE7=Good News
TTITLE8=Friends Across The Water
TTITLE9=Distant Summers
TTITLE10=Only With You
TTITLE11=Stick It
EXTD=YEAR: 1980
EXTT0=
EXTT1=
EXTT2=
EXTT3=
EXTT4=
EXTT5=
EXTT6=
EXTT7=
EXTT8=
EXTT9=
EXTT10=
EXTT11=
PLAYORDER=
